<svg width="32.000000" height="32.000000" viewBox="0 0 32 32" fill="none" xmlns="http://www.w3.org/2000/svg" xmlns:xlink="http://www.w3.org/1999/xlink">
	<desc>
			Created with Pixso.
	</desc>
	<defs/>
	<circle id="Oval" cx="16.000000" cy="16.000000" r="15.272727" stroke="#000000" stroke-opacity="1.000000" stroke-width="1.454545"/>
	<path id="Path" d="M9.36523 13.6641L12.2003 13.6641L12.2003 23.5449L9.36523 23.5449L9.36523 13.6641Z" fill="#000000" fill-opacity="1.000000" fill-rule="evenodd"/>
	<path id="Path" d="M10.7122 12.4277L10.6916 12.4277C9.66534 12.4277 9 11.6729 9 10.7168C9 9.74023 9.685 9 10.7318 9C11.7777 9 12.4208 9.73828 12.4413 10.7139C12.4413 11.6699 11.7777 12.4277 10.7122 12.4277Z" fill="#000000" fill-opacity="1.000000" fill-rule="evenodd"/>
	<path id="Path" d="M23.544 23.5459L20.3292 23.5459L20.3292 18.4316C20.3292 17.0938 19.8264 16.1807 18.7206 16.1807C17.8748 16.1807 17.4044 16.7959 17.1855 17.3916C17.1034 17.6035 17.1162 17.9014 17.1162 18.1992L17.1162 23.5459L13.9314 23.5459C13.9314 23.5459 13.9725 14.4873 13.9314 13.6641L17.1162 13.6641L17.1162 15.2148C17.3044 14.5371 18.3221 13.5693 19.9461 13.5693C21.961 13.5693 23.544 14.9912 23.544 18.0508L23.544 23.5459Z" fill="#000000" fill-opacity="1.000000" fill-rule="evenodd"/>
</svg>
