<svg  viewBox="0 0 30 30" fill="none" xmlns="http://www.w3.org/2000/svg" xmlns:xlink="http://www.w3.org/1999/xlink">
	<desc>
			Created with Pixso.
	</desc>
	<defs/>
	<path id="Vector" d="M15 30C23.2842 30 30 23.2842 30 15C30 6.71582 23.2842 0 15 0C6.71582 0 0 6.71582 0 15C0 23.2842 6.71582 30 15 30ZM21.5931 9.58301C21.7089 8.26904 20.3211 8.81055 20.3211 8.81055C19.2966 9.23438 18.24 9.66553 17.172 10.1011C13.86 11.4517 10.4388 12.8477 7.52429 14.2212C5.94391 14.8008 6.86908 15.3804 6.86908 15.3804L9.37439 16.1533C10.5309 16.5015 11.1474 16.1147 11.1474 16.1147L16.5438 12.4434C18.471 11.1294 18.0084 12.2114 17.5458 12.6753L13.4988 16.54C12.882 17.0811 13.1904 17.5449 13.4601 17.7769C14.2251 18.4517 16.1061 19.686 16.9272 20.2246C17.1408 20.3647 17.2827 20.458 17.3148 20.4824C17.5074 20.6367 18.5481 21.3325 19.242 21.1777C19.9359 21.0229 20.013 20.1343 20.013 20.1343L20.9379 14.0664C21.0765 13.0132 21.2358 12.0005 21.363 11.1919C21.483 10.4282 21.5745 9.84619 21.5931 9.58301Z" fill="#000000" fill-opacity="1.000000" fill-rule="evenodd"/>
</svg>
