<svg width="32.000000" height="32.000000" viewBox="0 0 32 32" fill="none" xmlns="http://www.w3.org/2000/svg" xmlns:xlink="http://www.w3.org/1999/xlink">
	<desc>
			Created with Pixso.
	</desc>
	<defs/>
	<circle id="Oval" cx="16.000000" cy="16.000000" r="15.272727" stroke="#000000" stroke-opacity="1.000000" stroke-width="1.454545"/>
	<path id="Shape" d="M22.2009 12.251C22.8481 11.8428 23.3447 11.1953 23.5778 10.4238C22.9718 10.8027 22.3022 11.0771 21.5877 11.2256C21.0176 10.582 20.2027 10.1816 19.3008 10.1816C17.5707 10.1816 16.1687 11.6611 16.1687 13.4863C16.1687 13.7451 16.1947 13.9971 16.2485 14.2383C13.6452 14.1006 11.3369 12.7861 9.79047 10.7861C9.52063 11.2754 9.36646 11.8428 9.36646 12.4482C9.36646 13.5938 9.91956 14.6055 10.7604 15.1992C10.2468 15.1826 9.76361 15.0322 9.34045 14.7861L9.34045 14.8271C9.34045 16.4287 10.4198 17.7646 11.855 18.0664C11.5914 18.1445 11.3153 18.1836 11.0284 18.1836C10.8268 18.1836 10.6296 18.1631 10.4395 18.124C10.8375 19.4365 11.9948 20.3936 13.3664 20.4189C12.2933 21.3057 10.9424 21.834 9.47491 21.834C9.22211 21.834 8.97205 21.8193 8.72729 21.7881C10.1141 22.7256 11.7609 23.2725 13.5305 23.2725C19.2946 23.2725 22.4447 18.2373 22.4447 13.8701C22.4447 13.7266 22.4429 13.583 22.4366 13.4424C23.0489 12.9766 23.5814 12.3936 24 11.7314C23.4379 11.9941 22.8337 12.1719 22.2009 12.251Z" fill="#000000" fill-opacity="1.000000" fill-rule="evenodd"/>
</svg>
