<svg  viewBox="0 0 30 30" fill="none" xmlns="http://www.w3.org/2000/svg" xmlns:xlink="http://www.w3.org/1999/xlink">
	<desc>
			Created with Pixso.
	</desc>
	<defs/>
	<path id="Vector" d="M15 30C23.2842 30 30 23.2842 30 15C30 6.71582 23.2842 0 15 0C6.71582 0 0 6.71582 0 15C0 23.2842 6.71582 30 15 30ZM20.7273 10.9092C21.3411 10.8413 21.9543 10.7046 22.5 10.4321C22.0908 11.0454 21.6138 11.5908 20.9316 11.9321L20.9316 12.3413C20.9316 16.4321 17.8635 21.0679 12.2046 21.0679C10.4319 21.0679 8.86353 20.5913 7.5 19.7046C7.77271 19.7725 7.97699 19.7725 8.25 19.7725C9.68188 19.7725 11.0454 19.2959 12.0681 18.4775C10.7046 18.4775 9.61377 17.5908 9.20459 16.3633C9.34113 16.4316 9.54572 16.4316 9.75 16.4316C10.0221 16.4316 10.2942 16.3638 10.566 16.2959L10.5684 16.2949C9.13678 16.0225 8.11383 14.7949 8.11383 13.2949L8.11383 13.2271C8.51807 13.4951 8.99261 13.6372 9.4776 13.6362C8.65948 13.0903 8.11383 12.2041 8.11383 11.1133C8.11383 10.4995 8.25031 10.0225 8.52301 9.54541C10.0911 11.3862 12.3411 12.6133 14.8638 12.75C14.7957 12.5454 14.7957 12.3408 14.7957 12.0679C14.794 11.6646 14.8722 11.2651 15.0258 10.8921C15.1793 10.519 15.4053 10.1802 15.6906 9.89502C15.9758 9.60938 16.3146 9.38379 16.6877 9.22998C17.0607 9.07666 17.4604 8.99854 17.8638 9C18.75 9 19.5681 9.34082 20.1138 9.9541C20.8638 9.81787 21.4773 9.5459 22.0908 9.2041C21.8181 9.95459 21.3408 10.5 20.7273 10.9092Z" fill="#000000" fill-opacity="1.000000" fill-rule="evenodd"/>
</svg>
