<svg  viewBox="0 0 30 30" fill="none" xmlns="http://www.w3.org/2000/svg" xmlns:xlink="http://www.w3.org/1999/xlink">
	<desc>
			Created with Pixso.
	</desc>
	<defs/>
	<path id="Vector" d="M15 30C23.2842 30 30 23.2842 30 15C30 6.71582 23.2842 0 15 0C6.71582 0 0 6.71582 0 15C0 23.2842 6.71582 30 15 30ZM7.5 10.2002C7.62183 16.0464 10.545 19.5601 15.6699 19.5601L15.9603 19.5601L15.9603 16.2148C17.8437 16.4023 19.2675 17.7798 19.8393 19.5601L22.5 19.5601C21.7692 16.8989 19.8486 15.4282 18.6492 14.8657C19.8486 14.1724 21.5349 12.4858 21.9378 10.2002L19.5204 10.2002C18.9957 12.0552 17.4408 13.7417 15.9603 13.9009L15.9603 10.2002L13.5432 10.2002L13.5432 16.6831C12.0441 16.3086 10.1514 14.4912 10.0668 10.2002L7.5 10.2002Z" fill="#000000" fill-opacity="1.000000" fill-rule="evenodd"/>
</svg>
