<svg width="32.000000" height="32.000000" viewBox="0 0 32 32" fill="none" xmlns="http://www.w3.org/2000/svg" xmlns:xlink="http://www.w3.org/1999/xlink">
	<desc>
			Created with Pixso.
	</desc>
	<defs/>
	<path id="Oval" d="M16 32C24.8365 32 32 24.8369 32 16C32 7.16309 24.8365 0 16 0C7.16345 0 0 7.16309 0 16C0 24.8369 7.16345 32 16 32ZM21.5837 29.4805Q19.0125 30.5459 16 30.5459Q12.9875 30.5459 10.4162 29.4805Q7.84491 28.415 5.71478 26.2852Q3.58466 24.1553 2.51959 21.584Q1.45453 19.0127 1.45453 16Q1.45453 12.9873 2.51959 10.416Q3.58466 7.84473 5.71478 5.71484Q7.84497 3.58496 10.4163 2.51953Q12.9875 1.4541 16 1.4541Q19.0125 1.4541 21.5837 2.51953Q24.155 3.58496 26.2852 5.71484Q28.4153 7.84473 29.4804 10.416Q30.5455 12.9873 30.5455 16Q30.5455 19.0127 29.4804 21.584Q28.4153 24.1553 26.2852 26.2852Q24.155 28.415 21.5837 29.4805Z" fill="#000000" fill-opacity="1.000000" fill-rule="evenodd"/>
	<path id="Shape" d="M16.528 21.7686C16.528 21.7686 16.8561 21.7324 17.0242 21.5557C17.178 21.3926 17.1727 21.0859 17.1727 21.0859C17.1727 21.0859 17.1523 19.6553 17.829 19.4443C18.496 19.2363 19.3523 20.8281 20.2612 21.4404C20.9477 21.9023 21.4688 21.8018 21.4688 21.8018L23.8974 21.7686C23.8974 21.7686 25.1673 21.6914 24.5652 20.7109C24.5154 20.6309 24.214 19.9854 22.76 18.6602C21.2367 17.2734 21.4412 17.498 23.2749 15.0986C24.3918 13.6367 24.8383 12.7451 24.6986 12.3633C24.5661 11.999 23.7444 12.0957 23.7444 12.0957L21.0108 12.1123C21.0108 12.1123 20.808 12.085 20.6578 12.1729C20.511 12.2598 20.4159 12.4609 20.4159 12.4609C20.4159 12.4609 19.9837 13.5918 19.4066 14.5537C18.1891 16.582 17.7027 16.6895 17.5035 16.5635C17.0402 16.2695 17.1558 15.3838 17.1558 14.7539C17.1558 12.7881 17.46 11.9678 16.5645 11.7559C16.2675 11.6855 16.0486 11.6387 15.2883 11.6309C14.3128 11.6211 13.4875 11.6348 13.0198 11.8594C12.7086 12.0078 12.4684 12.3418 12.6152 12.3613C12.7957 12.3848 13.2048 12.4688 13.4218 12.7588C13.7018 13.1338 13.6921 13.9727 13.6921 13.9727C13.6921 13.9727 13.853 16.2881 13.3159 16.5752C12.9478 16.7725 12.4427 16.3701 11.3569 14.5293C10.8011 13.5859 10.3813 12.5439 10.3813 12.5439C10.3813 12.5439 10.3004 12.3496 10.1555 12.2451C9.98029 12.1182 9.73572 12.0791 9.73572 12.0791L7.13812 12.0957C7.13812 12.0957 6.74774 12.1055 6.60455 12.2725C6.47742 12.4199 6.59479 12.7266 6.59479 12.7266C6.59479 12.7266 8.62854 17.3975 10.9318 19.752C13.0438 21.9092 15.4413 21.7686 15.4413 21.7686L16.528 21.7686Z" fill="#000000" fill-opacity="1.000000" fill-rule="evenodd"/>
</svg>
